<svg width="36" height="37" viewBox="0 0 36 37" fill="none" xmlns="http://www.w3.org/2000/svg">
<g id="SVG" clip-path="url(#clip0_1_255)">
<path id="Vector" d="M5.02313 13.8743C5.02313 10.4327 6.39033 7.13194 8.82397 4.6983C11.2576 2.26466 14.5583 0.897461 18 0.897461C21.4417 0.897461 24.7424 2.26466 27.176 4.6983C29.6097 7.13194 30.9769 10.4327 30.9769 13.8743V20.5723C30.9769 20.9054 30.8446 21.2248 30.6091 21.4603C30.3736 21.6958 30.0542 21.8281 29.7211 21.8281C29.388 21.8281 29.0686 21.6958 28.8331 21.4603C28.5976 21.2248 28.4653 20.9054 28.4653 20.5723V13.8743C28.4653 11.0988 27.3627 8.43687 25.4001 6.47424C23.4375 4.51162 20.7756 3.40902 18 3.40902C15.2244 3.40902 12.5625 4.51162 10.5999 6.47424C8.63729 8.43687 7.53469 11.0988 7.53469 13.8743V20.5723C7.53469 20.9054 7.40239 21.2248 7.16688 21.4603C6.93138 21.6958 6.61197 21.8281 6.27891 21.8281C5.94586 21.8281 5.62645 21.6958 5.39094 21.4603C5.15544 21.2248 5.02313 20.9054 5.02313 20.5723V13.8743ZM29.7211 22.6648C30.0542 22.6648 30.3736 22.7971 30.6091 23.0326C30.8446 23.2681 30.9769 23.5875 30.9769 23.9206V28.9437C30.9769 30.1652 30.4917 31.3366 29.628 32.2003C28.7643 33.064 27.5929 33.5492 26.3714 33.5492H21.3483C21.0223 33.5383 20.7134 33.4011 20.4866 33.1667C20.2599 32.9322 20.1331 32.6188 20.1331 32.2927C20.1331 31.9665 20.2599 31.6532 20.4866 31.4187C20.7134 31.1843 21.0223 31.0471 21.3483 31.0362H26.3714C26.6463 31.0364 26.9186 30.9824 27.1726 30.8773C27.4266 30.7723 27.6575 30.6182 27.8519 30.4238C28.0464 30.2295 28.2007 29.9988 28.3059 29.7448C28.4111 29.4908 28.4653 29.2186 28.4653 28.9437V23.9206C28.4653 23.7557 28.4978 23.5924 28.5609 23.44C28.624 23.2877 28.7165 23.1492 28.8331 23.0326C28.9497 22.916 29.0882 22.8235 29.2405 22.7604C29.3929 22.6973 29.5562 22.6648 29.7211 22.6648Z" fill="#B5E7D9"/>
<path id="Vector_2" d="M15.0694 32.2934C15.0694 31.5162 15.3781 30.7708 15.9277 30.2212C16.4773 29.6716 17.2227 29.3628 18 29.3628H19.6748C20.4408 29.3796 21.1697 29.6956 21.7055 30.2433C22.2413 30.7909 22.5413 31.5266 22.5413 32.2927C22.5413 33.0588 22.2413 33.7945 21.7055 34.3422C21.1697 34.8898 20.4408 35.2059 19.6748 35.2226H18C17.223 35.2226 16.4778 34.9141 15.9282 34.3648C15.3787 33.8155 15.0697 33.0704 15.0694 32.2934ZM18 31.8715C17.9405 31.8638 17.88 31.8689 17.8227 31.8864C17.7653 31.9038 17.7123 31.9334 17.6672 31.973C17.6221 32.0126 17.586 32.0613 17.5613 32.116C17.5366 32.1706 17.5238 32.2299 17.5238 32.2899C17.5238 32.3499 17.5366 32.4092 17.5613 32.4638C17.586 32.5185 17.6221 32.5673 17.6672 32.6068C17.7123 32.6464 17.7653 32.676 17.8227 32.6935C17.88 32.7109 17.9405 32.716 18 32.7083H19.6748C19.7765 32.6951 19.8698 32.6453 19.9374 32.5683C20.0051 32.4913 20.0424 32.3924 20.0424 32.2899C20.0424 32.1874 20.0051 32.0885 19.9374 32.0115C19.8698 31.9345 19.7765 31.8847 19.6748 31.8715H18Z" fill="#B5E7D9"/>
<path id="Vector_3" d="M4.60406 15.9668C3.99933 15.9668 3.40052 16.0859 2.84184 16.3174C2.28316 16.5489 1.77555 16.8881 1.348 17.3158C0.920457 17.7435 0.581353 18.2512 0.35006 18.8099C0.118767 19.3687 -0.000184493 19.9675 2.1478e-07 20.5723V23.9205C1.57851e-07 25.1417 0.485025 26.313 1.34841 27.1766C2.2118 28.0403 3.38286 28.5256 4.60406 28.526H6.27891C6.44394 28.526 6.60735 28.4935 6.7598 28.4303C6.91225 28.3671 7.05075 28.2745 7.16738 28.1577C7.284 28.0409 7.37647 27.9023 7.4395 27.7498C7.50253 27.5973 7.53487 27.4339 7.53469 27.2688V17.2226C7.53469 17.0577 7.50221 16.8944 7.4391 16.742C7.37599 16.5897 7.28349 16.4512 7.16688 16.3346C7.05027 16.218 6.91183 16.1255 6.75947 16.0624C6.60711 15.9993 6.44382 15.9668 6.27891 15.9668H4.60406ZM31.3959 15.9668C32.0007 15.9668 32.5995 16.0859 33.1582 16.3174C33.7168 16.5489 34.2245 16.8881 34.652 17.3158C35.0795 17.7435 35.4186 18.2512 35.6499 18.8099C35.8812 19.3687 36.0002 19.9675 36 20.5723V23.9205C36 25.1417 35.515 26.313 34.6516 27.1766C33.7882 28.0403 32.6171 28.5256 31.3959 28.526H29.7211C29.5561 28.526 29.3927 28.4935 29.2402 28.4303C29.0878 28.3671 28.9493 28.2745 28.8326 28.1577C28.716 28.0409 28.6235 27.9023 28.5605 27.7498C28.4975 27.5973 28.4651 27.4339 28.4653 27.2688V17.2226C28.4653 17.0577 28.4978 16.8944 28.5609 16.742C28.624 16.5897 28.7165 16.4512 28.8331 16.3346C28.9497 16.218 29.0882 16.1255 29.2405 16.0624C29.3929 15.9993 29.5562 15.9668 29.7211 15.9668H31.3959Z" fill="#45C4A0"/>
</g>
<defs>
<clipPath id="clip0_1_255">
<rect width="36" height="36" fill="white" transform="translate(0 0.0600586)"/>
</clipPath>
</defs>
</svg>
