<svg width="36" height="37" viewBox="0 0 36 37" fill="none" xmlns="http://www.w3.org/2000/svg">
<g id="SVG" clip-path="url(#clip0_1_242)">
<path id="Vector" d="M8.25046 25.7781C10.7357 25.7781 12.7505 23.7634 12.7505 21.2781C12.7505 18.7928 10.7357 16.7781 8.25046 16.7781C5.76518 16.7781 3.75046 18.7928 3.75046 21.2781C3.75046 23.7634 5.76518 25.7781 8.25046 25.7781Z" fill="#A07CC5"/>
<path id="Vector_2" d="M12.375 28.7791H4.12453C3.03049 28.7802 1.98163 29.2155 1.20829 29.9893C0.43495 30.7632 0.000372058 31.8124 0 32.9064L0 35.1564C0 35.4548 0.118526 35.7409 0.329505 35.9519C0.540483 36.1629 0.826631 36.2814 1.125 36.2814H15.3745C15.6729 36.2814 15.959 36.1629 16.17 35.9519C16.381 35.7409 16.4995 35.4548 16.4995 35.1564V32.9064C16.4992 31.8124 16.0646 30.7632 15.2912 29.9893C14.5179 29.2155 13.469 28.7802 12.375 28.7791Z" fill="#A07CC5"/>
<path id="Vector_3" d="M27.7495 25.7781C30.2348 25.7781 32.2495 23.7634 32.2495 21.2781C32.2495 18.7928 30.2348 16.7781 27.7495 16.7781C25.2643 16.7781 23.2495 18.7928 23.2495 21.2781C23.2495 23.7634 25.2643 25.7781 27.7495 25.7781Z" fill="#A07CC5"/>
<path id="Vector_4" d="M31.8755 28.7791H23.625C22.531 28.7802 21.4821 29.2155 20.7087 29.9893C19.9354 30.7632 19.5008 31.8124 19.5005 32.9064V35.1564C19.5005 35.4548 19.619 35.7409 19.83 35.9519C20.0409 36.1629 20.3271 36.2814 20.6255 36.2814H34.875C35.1734 36.2814 35.4595 36.1629 35.6705 35.9519C35.8815 35.7409 36 35.4548 36 35.1564V32.9064C35.9996 31.8124 35.565 30.7632 34.7917 29.9893C34.0184 29.2155 32.9695 28.7802 31.8755 28.7791Z" fill="#A07CC5"/>
<path id="Vector_5" d="M21.06 15.5365V16.6165C21.0578 17.06 20.8795 17.4846 20.5644 17.7968C20.2493 18.109 19.8231 18.2833 19.3795 18.2815H16.619C15.809 18.2815 14.9315 17.681 14.9315 16.3465V15.5365H21.06ZM24.75 6.98645C24.7524 7.98173 24.5313 8.96485 24.1029 9.86323C23.6745 10.7616 23.0499 11.5523 22.275 12.1769C21.6788 12.6406 21.2646 13.2992 21.105 14.0374H14.9062C14.7844 13.3237 14.392 12.6845 13.8108 12.2529C12.9909 11.6162 12.332 10.7958 11.8872 9.85789C11.4424 8.91993 11.2241 7.89061 11.25 6.85286C11.3245 3.28239 14.31 0.327858 17.8945 0.281452C18.7945 0.261309 19.6892 0.423898 20.5245 0.759387C21.3599 1.09488 22.1185 1.5963 22.7545 2.23333C23.3897 2.85063 23.8939 3.58976 24.2368 4.40648C24.5796 5.22319 24.7542 6.10069 24.75 6.98645Z" fill="#D9CBE8"/>
</g>
<defs>
<clipPath id="clip0_1_242">
<rect width="36" height="36" fill="white" transform="translate(0 0.280029)"/>
</clipPath>
</defs>
</svg>
