<svg width="36" height="37" viewBox="0 0 36 37" fill="none" xmlns="http://www.w3.org/2000/svg">
<g id="SVG" clip-path="url(#clip0_1_250)">
<path id="Vector" d="M31.2012 12.8569C30.0199 12.8599 28.8803 12.421 28.0062 11.6265V17.281H24.1812C24.5297 16.4971 24.7084 15.6484 24.7057 14.7905C24.7033 13.8568 24.4934 12.9352 24.0911 12.0926C23.6888 11.2499 23.1043 10.5072 22.3797 9.91817C21.6551 9.32917 20.8087 8.90859 19.9017 8.68686C18.9946 8.46514 18.0496 8.44782 17.135 8.63616C16.2205 8.8245 15.3592 9.21379 14.6135 9.77585C13.8679 10.3379 13.2565 11.0587 12.8236 11.8861C12.3907 12.7134 12.1472 13.6267 12.1106 14.5597C12.074 15.4927 12.2452 16.4223 12.612 17.281H7.99664V1.67162C7.9959 1.46037 8.03685 1.25105 8.11713 1.05565C8.19742 0.860254 8.31547 0.682615 8.46452 0.532912C8.61357 0.383209 8.79069 0.264384 8.98574 0.183243C9.18078 0.102103 9.38992 0.0602423 9.60117 0.0600586L26.4016 0.0600586C26.8271 0.060431 27.235 0.229599 27.5358 0.530426C27.8366 0.831254 28.0058 1.23916 28.0062 1.66459V4.48412C28.5859 3.9667 29.2826 3.5979 30.0364 3.40946C30.7902 3.22102 31.5786 3.21859 32.3335 3.40236C33.0885 3.58614 33.7875 3.95063 34.3704 4.46446C34.9533 4.97828 35.4026 5.62605 35.6796 6.35201C35.9566 7.07797 36.0531 7.86037 35.9607 8.63188C35.8683 9.40338 35.5898 10.1409 35.1491 10.7809C34.7085 11.4209 34.119 11.9442 33.4312 12.3059C32.7435 12.6675 31.9782 12.8566 31.2012 12.8569Z" fill="#FCD1C9"/>
<path id="Vector_2" d="M20.082 25.5484C19.9473 26.2437 19.9681 26.9601 20.143 27.6463C20.3179 28.3325 20.6424 28.9715 21.0934 29.5175C21.5444 30.0635 22.1106 30.5029 22.7514 30.8043C23.3922 31.1057 24.0918 31.2615 24.7999 31.2606C25.983 31.2638 27.1243 30.8238 27.9991 30.0273V34.4598C27.998 34.8837 27.8293 35.2899 27.5297 35.5897C27.2301 35.8895 26.8241 36.0587 26.4002 36.0601H9.60399C9.1799 36.059 8.7735 35.8901 8.47362 35.5902C8.17375 35.2903 8.00479 34.8839 8.00367 34.4598V30.0273C7.42456 30.5477 6.72752 30.9193 5.97273 31.1101C5.21793 31.3009 4.42804 31.3051 3.67122 31.1225C2.91441 30.9398 2.21341 30.5758 1.62871 30.0617C1.04402 29.5477 0.593193 28.8991 0.315147 28.1719C0.037101 27.4447 -0.0598149 26.6607 0.0327633 25.8877C0.125341 25.1147 0.404633 24.3758 0.846534 23.7348C1.28843 23.0939 1.87967 22.57 2.56922 22.2086C3.25877 21.8471 4.02592 21.6589 4.80446 21.6601C5.98738 21.6577 7.1285 22.0976 8.00367 22.8934V18.7872H15.7521C14.8938 18.217 14.2418 17.3856 13.8927 16.4161C13.5436 15.4465 13.5159 14.3904 13.8137 13.4039C14.1115 12.4174 14.719 11.553 15.5463 10.9386C16.3736 10.3242 17.3766 9.99243 18.4071 9.99243C19.4376 9.99243 20.4407 10.3242 21.2679 10.9386C22.0952 11.553 22.7027 12.4174 23.0005 13.4039C23.2983 14.3904 23.2706 15.4465 22.9215 16.4161C22.5724 17.3856 21.9204 18.217 21.0621 18.7872H28.0048V22.8934C27.3737 22.3246 26.6028 21.9337 25.771 21.7608C24.9392 21.5878 24.0764 21.639 23.2709 21.9091C22.4654 22.1793 21.7462 22.6586 21.1868 23.2981C20.6275 23.9375 20.2481 24.7142 20.0876 25.5484H20.082Z" fill="#F78B77"/>
</g>
<defs>
<clipPath id="clip0_1_250">
<rect width="36" height="36" fill="white" transform="translate(0 0.0600586)"/>
</clipPath>
</defs>
</svg>
