<svg width="36" height="37" viewBox="0 0 36 37" fill="none" xmlns="http://www.w3.org/2000/svg">
<g id="SVG" clip-path="url(#clip0_1_235)">
<path id="Vector" d="M18 5.46347C17.7016 5.46347 17.4155 5.34494 17.2045 5.13396C16.9935 4.92298 16.875 4.63684 16.875 4.33847V1.40503C16.875 1.10666 16.9935 0.820513 17.2045 0.609534C17.4155 0.398556 17.7016 0.280029 18 0.280029C18.2984 0.280029 18.5845 0.398556 18.7955 0.609534C19.0065 0.820513 19.125 1.10666 19.125 1.40503V4.33847C19.125 4.63684 19.0065 4.92298 18.7955 5.13396C18.5845 5.34494 18.2984 5.46347 18 5.46347ZM27.8578 9.54722C27.6356 9.54712 27.4185 9.48123 27.2337 9.35787C27.0489 9.23451 26.9048 9.0592 26.8195 8.85404C26.7342 8.64889 26.7116 8.42307 26.7545 8.20508C26.7974 7.98708 26.9038 7.78666 27.0605 7.62909L29.1375 5.55206C29.2409 5.4432 29.3651 5.35614 29.5027 5.29602C29.6403 5.23591 29.7885 5.20394 29.9387 5.20202C30.0888 5.2001 30.2379 5.22825 30.377 5.28483C30.5161 5.3414 30.6424 5.42525 30.7486 5.53143C30.8548 5.63761 30.9386 5.76398 30.9952 5.90307C31.0518 6.04217 31.0799 6.19118 31.078 6.34133C31.0761 6.49148 31.0441 6.63972 30.984 6.77733C30.9239 6.91493 30.8368 7.0391 30.728 7.14253L28.6509 9.21956C28.4402 9.42928 28.1551 9.54708 27.8578 9.54722ZM34.875 19.405H31.9416C31.6432 19.405 31.357 19.2865 31.1461 19.0755C30.9351 18.8645 30.8166 18.5784 30.8166 18.28C30.8166 17.9817 30.9351 17.6955 31.1461 17.4845C31.357 17.2736 31.6432 17.155 31.9416 17.155H34.875C35.1734 17.155 35.4595 17.2736 35.6705 17.4845C35.8815 17.6955 36 17.9817 36 18.28C36 18.5784 35.8815 18.8645 35.6705 19.0755C35.4595 19.2865 35.1734 19.405 34.875 19.405ZM29.932 31.3371C29.6333 31.3367 29.3467 31.2185 29.1347 31.008L27.0591 28.931C26.857 28.7183 26.746 28.4351 26.7498 28.1417C26.7535 27.8483 26.8717 27.5681 27.0792 27.3606C27.2866 27.1532 27.5669 27.0349 27.8603 27.0312C28.1536 27.0274 28.4368 27.1384 28.6495 27.3405L30.7266 29.4175C30.9374 29.6285 31.0558 29.9145 31.0558 30.2128C31.0558 30.511 30.9374 30.797 30.7266 31.008C30.6225 31.1128 30.4987 31.1958 30.3623 31.2523C30.2259 31.3088 30.0797 31.3376 29.932 31.3371ZM6.06797 31.3371C5.84563 31.337 5.6283 31.271 5.44343 31.1474C5.25856 31.0239 5.11445 30.8484 5.02929 30.643C4.94412 30.4376 4.92173 30.2116 4.96493 29.9935C5.00814 29.7754 5.115 29.5749 5.27203 29.4175L7.34906 27.3405C7.56176 27.1384 7.84498 27.0274 8.13833 27.0312C8.43169 27.0349 8.71197 27.1532 8.91943 27.3606C9.12688 27.5681 9.24508 27.8483 9.24884 28.1417C9.25259 28.4351 9.1416 28.7183 8.93953 28.931L6.8625 31.008C6.75844 31.1127 6.63462 31.1957 6.49823 31.2522C6.36184 31.3087 6.21559 31.3375 6.06797 31.3371ZM4.05844 19.405H1.125C0.826631 19.405 0.540483 19.2865 0.329505 19.0755C0.118526 18.8645 0 18.5784 0 18.28C0 17.9817 0.118526 17.6955 0.329505 17.4845C0.540483 17.2736 0.826631 17.155 1.125 17.155H4.05844C4.35681 17.155 4.64295 17.2736 4.85393 17.4845C5.06491 17.6955 5.18344 17.9817 5.18344 18.28C5.18344 18.5784 5.06491 18.8645 4.85393 19.0755C4.64295 19.2865 4.35681 19.405 4.05844 19.405ZM8.14219 9.54722C7.84393 9.54782 7.55764 9.42997 7.34625 9.21956L5.26922 7.14253C5.16036 7.0391 5.0733 6.91493 5.01318 6.77733C4.95306 6.63972 4.9211 6.49148 4.91918 6.34133C4.91726 6.19118 4.94541 6.04217 5.00199 5.90307C5.05856 5.76398 5.14241 5.63761 5.24859 5.53143C5.35477 5.42525 5.48113 5.3414 5.62023 5.28483C5.75933 5.22825 5.90834 5.2001 6.05849 5.20202C6.20864 5.20394 6.35688 5.23591 6.49448 5.29602C6.63209 5.35614 6.75626 5.4432 6.85969 5.55206L8.93672 7.62909C9.09318 7.78649 9.1996 7.98665 9.24257 8.20439C9.28555 8.42212 9.26316 8.64771 9.17823 8.85275C9.09329 9.05779 8.94961 9.23313 8.76526 9.3567C8.58091 9.48028 8.36412 9.54656 8.14219 9.54722Z" fill="#F5C3E1"/>
<path id="Vector_2" d="M22.5 31.7799V33.6544C22.4967 34.3497 22.219 35.0156 21.7273 35.5073C21.2357 35.9989 20.5698 36.2766 19.8745 36.2799H16.1241C14.8584 36.2799 13.5 35.3194 13.5 33.2199V31.7799H22.5ZM24.6094 10.1237C23.3844 9.13186 21.9526 8.42748 20.4193 8.06242C18.8861 7.69736 17.2905 7.68091 15.75 8.01428C11.7745 8.84538 8.55 12.0924 7.72453 16.0594C7.30389 18.0207 7.45324 20.0613 8.15494 21.9404C8.85663 23.8194 10.0814 25.4585 11.6845 26.664C12.5987 27.3666 13.2103 28.3917 13.3945 29.5299V29.5468C13.4283 29.5345 13.4641 29.5287 13.5 29.5299H22.5C22.5258 29.5276 22.5518 29.5329 22.5745 29.5454V29.5299C22.7841 28.3894 23.4591 27.3404 24.4941 26.5304C25.7309 25.5546 26.7326 24.3132 27.4248 22.898C28.1171 21.4829 28.4823 19.9301 28.4934 18.3547C28.5044 16.7793 28.1611 15.2216 27.4888 13.7968C26.8165 12.3721 25.8324 11.1167 24.6094 10.1237ZM23.625 19.0337C23.3273 19.0315 23.0424 18.9122 22.8319 18.7017C22.6214 18.4912 22.5022 18.2063 22.5 17.9087C22.5007 17.3666 22.3946 16.8297 22.1876 16.3288C21.9807 15.8278 21.6769 15.3725 21.2939 14.989C20.9108 14.6056 20.4558 14.3014 19.9551 14.0939C19.4543 13.8864 18.9175 13.7797 18.3755 13.7799C18.0771 13.7799 17.791 13.6614 17.58 13.4504C17.369 13.2394 17.2505 12.9533 17.2505 12.6549C17.2505 12.3565 17.369 12.0704 17.58 11.8594C17.791 11.6484 18.0771 11.5299 18.3755 11.5299C20.065 11.5336 21.6842 12.2064 22.8788 13.4011C24.0735 14.5957 24.7463 16.215 24.75 17.9044C24.7478 18.2021 24.6286 18.487 24.4181 18.6975C24.2076 18.908 23.9227 19.0272 23.625 19.0294V19.0337Z" fill="#E668B3"/>
<path id="Vector_3" d="M13.3945 29.5301H13.5C13.4641 29.5277 13.4282 29.533 13.3945 29.5456V29.5301Z" fill="#F5C3E1"/>
<path id="Vector_4" d="M22.5745 29.5301V29.5455C22.5518 29.5331 22.5258 29.5277 22.5 29.5301H22.5745Z" fill="#E668B3"/>
</g>
<defs>
<clipPath id="clip0_1_235">
<rect width="36" height="36" fill="white" transform="translate(0 0.280029)"/>
</clipPath>
</defs>
</svg>
