<svg width="20" height="21" viewBox="0 0 20 21" fill="none" xmlns="http://www.w3.org/2000/svg">
<g id="Nav &#226;&#134;&#146; Link">
<path id="Vector" d="M7.08984 4.63379H8.65234V1.97754C8.3138 1.93848 7.95573 1.90918 7.57812 1.88965C7.20052 1.87012 6.8099 1.86035 6.40625 1.86035C6.40625 1.86035 6.40299 1.86035 6.39648 1.86035C6.38997 1.86035 6.38021 1.86035 6.36719 1.86035C5.23438 1.86035 4.31641 2.19889 3.61328 2.87598C2.91016 3.55306 2.55859 4.52311 2.55859 5.78613V7.97363H0V10.9424H2.55859V18.54H5.625V10.9424H8.18359L8.55469 7.97363H5.625V6.0791C5.625 5.63639 5.71615 5.28483 5.89844 5.02441C6.08073 4.764 6.47786 4.63379 7.08984 4.63379Z" fill="#4470CF"/>
</g>
</svg>
