<svg width="20" height="21" viewBox="0 0 20 21" fill="none" xmlns="http://www.w3.org/2000/svg">
<g id="Nav &#226;&#134;&#146; Link">
<path id="Vector" d="M12.793 4.75098C12.5195 4.75098 12.2852 4.84863 12.0898 5.04395C11.8945 5.23926 11.7969 5.47363 11.7969 5.74707C11.7969 6.02051 11.8945 6.25488 12.0898 6.4502C12.2852 6.64551 12.5195 6.74316 12.793 6.74316C13.0664 6.74316 13.3008 6.64551 13.4961 6.4502C13.6914 6.25488 13.7891 6.02051 13.7891 5.74707C13.7891 5.47363 13.6914 5.23926 13.4961 5.04395C13.3008 4.84863 13.0664 4.75098 12.793 4.75098ZM16.6211 6.7627C16.6081 6.39811 16.569 6.04329 16.5039 5.69824C16.4388 5.35319 16.3477 5.0179 16.2305 4.69238V4.75098C16.1263 4.4515 15.9928 4.18132 15.8301 3.94043C15.6673 3.69954 15.4818 3.47493 15.2734 3.2666C15.0781 3.05827 14.8568 2.87272 14.6094 2.70996C14.362 2.5472 14.1016 2.41374 13.8281 2.30957H13.7891C13.4896 2.19238 13.1706 2.09798 12.832 2.02637C12.4935 1.95475 12.1419 1.91895 11.7773 1.91895C11.3346 1.8929 10.9342 1.87663 10.5762 1.87012C10.2181 1.86361 9.47266 1.86035 8.33984 1.86035C7.20703 1.86035 6.46159 1.86361 6.10352 1.87012C5.74544 1.87663 5.34505 1.8929 4.90234 1.91895C4.53776 1.91895 4.18294 1.95475 3.83789 2.02637C3.49284 2.09798 3.15755 2.19889 2.83203 2.3291L2.89062 2.30957C2.59115 2.41374 2.32096 2.5472 2.08008 2.70996C1.83919 2.87272 1.61458 3.05827 1.40625 3.2666C1.19792 3.46191 1.01237 3.68327 0.849609 3.93066C0.686849 4.17806 0.553385 4.43848 0.449219 4.71191V4.75098C0.332031 5.05046 0.23763 5.36947 0.166016 5.70801C0.094401 6.04655 0.0585938 6.39811 0.0585938 6.7627C0.0325521 7.2054 0.016276 7.60579 0.00976562 7.96387C0.00325521 8.32194 0 9.06738 0 10.2002C0 11.333 0.00325521 12.0785 0.00976562 12.4365C0.016276 12.7946 0.0325521 13.195 0.0585938 13.6377C0.0585938 14.0023 0.094401 14.3571 0.166016 14.7021C0.23763 15.0472 0.338542 15.3825 0.46875 15.708L0.449219 15.6494C0.553385 15.9489 0.686849 16.2223 0.849609 16.4697C1.01237 16.7171 1.19792 16.9385 1.40625 17.1338C1.61458 17.3421 1.83919 17.5277 2.08008 17.6904C2.32096 17.8532 2.57812 17.9867 2.85156 18.0908H2.89062C3.1901 18.208 3.50911 18.3024 3.84766 18.374C4.1862 18.4456 4.53776 18.4814 4.90234 18.4814C5.34505 18.5075 5.74544 18.5238 6.10352 18.5303C6.46159 18.5368 7.20703 18.54 8.33984 18.54C9.47266 18.54 10.2181 18.5368 10.5762 18.5303C10.9342 18.5238 11.3346 18.5075 11.7773 18.4814C12.1419 18.4814 12.4967 18.4456 12.8418 18.374C13.1868 18.3024 13.5221 18.2015 13.8477 18.0713L13.7891 18.0908C14.0885 17.9867 14.362 17.8532 14.6094 17.6904C14.8568 17.5277 15.0781 17.3421 15.2734 17.1338C15.4818 16.9255 15.6673 16.7008 15.8301 16.46C15.9928 16.2191 16.1263 15.9619 16.2305 15.6885V15.6494C16.3477 15.3499 16.4388 15.0309 16.5039 14.6924C16.569 14.3538 16.6081 14.0023 16.6211 13.6377C16.6211 13.195 16.6309 12.7946 16.6504 12.4365C16.6699 12.0785 16.6797 11.333 16.6797 10.2002C16.6797 9.06738 16.6764 8.32194 16.6699 7.96387C16.6634 7.60579 16.6471 7.2054 16.6211 6.7627ZM15.1172 13.54C15.1172 13.8135 15.0911 14.0837 15.0391 14.3506C14.987 14.6175 14.9154 14.8747 14.8242 15.1221L14.8438 15.083C14.7656 15.2653 14.6745 15.4378 14.5703 15.6006C14.4661 15.7633 14.349 15.9098 14.2188 16.04C14.0885 16.1702 13.9421 16.2874 13.7793 16.3916C13.6165 16.4958 13.4505 16.5869 13.2812 16.665H13.2617C13.0273 16.7562 12.7799 16.8245 12.5195 16.8701C12.2591 16.9157 11.9922 16.945 11.7188 16.958H11.6992C11.2826 16.971 10.8984 16.9808 10.5469 16.9873C10.1953 16.9938 9.47266 16.9971 8.37891 16.9971C7.28516 16.9971 6.55924 16.9971 6.20117 16.9971C5.8431 16.9971 5.45573 16.984 5.03906 16.958C5.02604 16.958 5.01302 16.958 5 16.958C4.98698 16.958 4.96745 16.958 4.94141 16.958C4.66797 16.958 4.40104 16.9352 4.14062 16.8896C3.88021 16.8441 3.63281 16.7757 3.39844 16.6846L3.41797 16.7041C3.2487 16.626 3.08594 16.5348 2.92969 16.4307C2.77344 16.3265 2.63021 16.2093 2.5 16.0791C2.36979 15.9489 2.2526 15.8024 2.14844 15.6396C2.04427 15.4769 1.95964 15.3109 1.89453 15.1416V15.1221C1.79036 14.8877 1.70898 14.637 1.65039 14.3701C1.5918 14.1032 1.5625 13.8265 1.5625 13.54C1.5625 13.1234 1.55273 12.736 1.5332 12.3779C1.51367 12.0199 1.50391 11.2939 1.50391 10.2002C1.50391 9.10645 1.50716 8.38053 1.51367 8.02246C1.52018 7.66439 1.53646 7.27702 1.5625 6.86035C1.5625 6.57389 1.58854 6.2972 1.64062 6.03027C1.69271 5.76335 1.76432 5.50618 1.85547 5.25879V5.27832C1.93359 5.09603 2.02474 4.93001 2.12891 4.78027C2.23307 4.63053 2.35677 4.49056 2.5 4.36035C2.63021 4.23014 2.77018 4.10645 2.91992 3.98926C3.06966 3.87207 3.22917 3.78092 3.39844 3.71582L3.41797 3.69629C3.65234 3.60514 3.90299 3.53678 4.16992 3.49121C4.43685 3.44564 4.71354 3.42285 5 3.42285C5.41667 3.42285 5.80404 3.41309 6.16211 3.39355C6.52018 3.37402 7.24609 3.36426 8.33984 3.36426C9.43359 3.36426 10.1595 3.36751 10.5176 3.37402C10.8757 3.38053 11.263 3.39681 11.6797 3.42285C11.9531 3.42285 12.2233 3.44889 12.4902 3.50098C12.7572 3.55306 13.0143 3.62467 13.2617 3.71582L13.2227 3.69629C13.418 3.77441 13.597 3.86882 13.7598 3.97949C13.9225 4.09017 14.0755 4.21712 14.2188 4.36035C14.349 4.49056 14.4661 4.63053 14.5703 4.78027C14.6745 4.93001 14.7591 5.08952 14.8242 5.25879L14.8438 5.27832C14.9349 5.5127 15.0033 5.76335 15.0488 6.03027C15.0944 6.2972 15.1172 6.57389 15.1172 6.86035C15.1432 7.27702 15.1595 7.66439 15.166 8.02246C15.1725 8.38053 15.1758 9.10645 15.1758 10.2002C15.1758 11.2939 15.1725 12.0199 15.166 12.3779C15.1595 12.736 15.1432 13.1234 15.1172 13.54ZM8.33984 5.92285C7.75391 5.92285 7.20052 6.03353 6.67969 6.25488C6.15885 6.48926 5.70638 6.7985 5.32227 7.18262C4.93815 7.56673 4.63542 8.01921 4.41406 8.54004C4.19271 9.06087 4.08203 9.61426 4.08203 10.2002C4.08203 10.7861 4.19271 11.3395 4.41406 11.8604C4.63542 12.3812 4.93815 12.8337 5.32227 13.2178C5.70638 13.6019 6.15885 13.9111 6.67969 14.1455C7.20052 14.3669 7.75391 14.4775 8.33984 14.4775C8.9388 14.4775 9.4987 14.3669 10.0195 14.1455C10.5273 13.9111 10.9766 13.6019 11.3672 13.2178C11.7578 12.8337 12.0638 12.3812 12.2852 11.8604C12.5065 11.3395 12.6172 10.7861 12.6172 10.2002C12.6172 9.60124 12.5065 9.04785 12.2852 8.54004C12.0638 8.01921 11.7611 7.56348 11.377 7.17285C10.9928 6.78223 10.5404 6.47624 10.0195 6.25488C9.4987 6.03353 8.94531 5.92285 8.35938 5.92285C8.35938 5.92285 8.35612 5.92285 8.34961 5.92285C8.3431 5.92285 8.33984 5.92285 8.33984 5.92285ZM8.33984 12.9736C7.57161 12.9736 6.91732 12.7035 6.37695 12.1631C5.83659 11.6227 5.56641 10.9684 5.56641 10.2002C5.56641 9.43197 5.83659 8.77767 6.37695 8.2373C6.91732 7.69694 7.57161 7.42676 8.33984 7.42676C9.10807 7.42676 9.76237 7.69694 10.3027 8.2373C10.8431 8.77767 11.1133 9.43197 11.1133 10.2002C11.1133 10.9684 10.8431 11.6227 10.3027 12.1631C9.76237 12.7035 9.10807 12.9736 8.33984 12.9736Z" fill="#D53581"/>
</g>
</svg>
