<svg width="20" height="21" viewBox="0 0 20 21" fill="none" xmlns="http://www.w3.org/2000/svg">
<g id="Nav &#226;&#134;&#146; Link">
<path id="Vector" d="M16.6992 5.02441C16.4128 5.15462 16.1035 5.2653 15.7715 5.35645C15.4395 5.44759 15.1042 5.51921 14.7656 5.57129H14.7266C15.0781 5.34993 15.3841 5.07975 15.6445 4.76074C15.9049 4.44173 16.1003 4.08691 16.2305 3.69629V3.67676C15.918 3.85905 15.5827 4.02181 15.2246 4.16504C14.8665 4.30827 14.4922 4.41895 14.1016 4.49707L14.0625 4.5166C13.75 4.17806 13.3757 3.90788 12.9395 3.70605C12.5033 3.50423 12.0378 3.40332 11.543 3.40332C10.6055 3.40332 9.80143 3.73861 9.13086 4.40918C8.46029 5.07975 8.125 5.88379 8.125 6.82129C8.125 6.96452 8.13477 7.10449 8.1543 7.24121C8.17383 7.37793 8.19661 7.51139 8.22266 7.6416V7.62207C7.51953 7.58301 6.83594 7.47233 6.17188 7.29004C5.50781 7.10775 4.8763 6.86361 4.27734 6.55762C3.67839 6.25163 3.11849 5.8903 2.59766 5.47363C2.08984 5.04395 1.62109 4.5752 1.19141 4.06738V4.04785C1.04818 4.29525 0.934245 4.56543 0.849609 4.8584C0.764974 5.15137 0.722656 5.4541 0.722656 5.7666C0.722656 5.77962 0.722656 5.78613 0.722656 5.78613C0.722656 6.37207 0.859375 6.91243 1.13281 7.40723C1.40625 7.90202 1.77083 8.30566 2.22656 8.61816H2.24609C1.95964 8.60514 1.68294 8.56283 1.41602 8.49121C1.14909 8.4196 0.904948 8.31868 0.683594 8.18848V8.22754C0.696615 9.04785 0.963542 9.77051 1.48438 10.3955C2.00521 11.0205 2.64974 11.4111 3.41797 11.5674H3.4375C3.30729 11.6064 3.16406 11.639 3.00781 11.665C2.85156 11.6911 2.6888 11.7041 2.51953 11.7041C2.41536 11.7041 2.30794 11.7008 2.19727 11.6943C2.08659 11.6878 1.97266 11.6715 1.85547 11.6455H1.875C2.10938 12.3356 2.51628 12.8988 3.0957 13.335C3.67513 13.7712 4.33594 13.9958 5.07812 14.0088C4.50521 14.4645 3.85742 14.8226 3.13477 15.083C2.41211 15.3434 1.65365 15.4801 0.859375 15.4932C0.859375 15.4932 0.85612 15.4932 0.849609 15.4932C0.843099 15.4932 0.839844 15.4932 0.839844 15.4932C0.696615 15.4932 0.553385 15.4867 0.410156 15.4736C0.266927 15.4606 0.130208 15.4476 0 15.4346H0.0195312C0.761719 15.9163 1.57552 16.2939 2.46094 16.5674C3.34635 16.8408 4.27734 16.9775 5.25391 16.9775C5.25391 16.9775 5.25716 16.9775 5.26367 16.9775C5.27018 16.9775 5.27344 16.9775 5.27344 16.9775C5.28646 16.9775 5.29948 16.9775 5.3125 16.9775C5.32552 16.9775 5.34505 16.9775 5.37109 16.9775C6.69922 16.9775 7.94922 16.7236 9.12109 16.2158C10.293 15.708 11.3184 15.0179 12.1973 14.1455C13.0762 13.2731 13.763 12.251 14.2578 11.0791C14.7656 9.90723 15.0195 8.65072 15.0195 7.30957C15.0195 7.29655 15.0195 7.28353 15.0195 7.27051C15.0195 7.25749 15.0195 7.24447 15.0195 7.23145V7.25098C15.0195 7.17285 15.0195 7.09798 15.0195 7.02637C15.0195 6.95475 15.0195 6.87988 15.0195 6.80176C15.3451 6.55436 15.6478 6.28418 15.9277 5.99121C16.2077 5.69824 16.4583 5.389 16.6797 5.06348L16.6992 5.02441Z" fill="#5DAED5"/>
</g>
</svg>
