<svg width="20" height="21" viewBox="0 0 20 21" fill="none" xmlns="http://www.w3.org/2000/svg">
<g id="Nav &#226;&#134;&#146; Link">
<path id="Vector" d="M8.33984 1.86035C7.19401 1.86035 6.11328 2.08171 5.09766 2.52441C4.08203 2.9541 3.19661 3.54655 2.44141 4.30176C1.6862 5.05697 1.09375 5.94238 0.664062 6.95801C0.221354 7.97363 0 9.05436 0 10.2002C0 11.346 0.221354 12.4268 0.664062 13.4424C1.09375 14.458 1.6862 15.3434 2.44141 16.0986C3.19661 16.8538 4.08203 17.4463 5.09766 17.876C6.11328 18.3187 7.19401 18.54 8.33984 18.54C9.48568 18.54 10.5664 18.3187 11.582 17.876C12.5977 17.4463 13.4831 16.8538 14.2383 16.0986C14.9935 15.3434 15.5859 14.458 16.0156 13.4424C16.4583 12.4268 16.6797 11.346 16.6797 10.2002C16.6797 9.05436 16.4583 7.97363 16.0156 6.95801C15.5859 5.94238 14.9935 5.05697 14.2383 4.30176C13.4831 3.54655 12.5977 2.9541 11.582 2.52441C10.5664 2.08171 9.48568 1.86035 8.33984 1.86035ZM8.33984 3.54004C9.23828 3.54004 10.0814 3.7028 10.8691 4.02832C11.6569 4.35384 12.3438 4.80306 12.9297 5.37598C12.3568 5.72754 11.7415 6.05306 11.084 6.35254C10.4264 6.65202 9.7526 6.91895 9.0625 7.15332L8.90625 7.19238C8.52865 6.55436 8.14128 5.95215 7.74414 5.38574C7.34701 4.81934 6.92708 4.27572 6.48438 3.75488L6.52344 3.79395C6.79688 3.71582 7.08659 3.65397 7.39258 3.6084C7.69857 3.56283 8.01432 3.54004 8.33984 3.54004ZM4.92188 4.49707C5.33854 4.96582 5.73893 5.46061 6.12305 5.98145C6.50716 6.50228 6.86849 7.04264 7.20703 7.60254L7.26562 7.7002C6.51042 7.89551 5.70964 8.04525 4.86328 8.14941C4.01693 8.25358 3.15104 8.31217 2.26562 8.3252H1.95312C2.20052 7.50488 2.57812 6.76921 3.08594 6.11816C3.59375 5.46712 4.19271 4.93327 4.88281 4.5166L4.92188 4.49707ZM3.33984 14.6338C2.81901 14.0479 2.41211 13.3805 2.11914 12.6318C1.82617 11.8831 1.67969 11.0856 1.67969 10.2393C1.67969 10.2393 1.67969 10.236 1.67969 10.2295C1.67969 10.223 1.67969 10.2132 1.67969 10.2002C1.67969 10.1611 1.67969 10.1221 1.67969 10.083C1.67969 10.0439 1.67969 10.0049 1.67969 9.96582H2.24609C3.28776 9.9528 4.30664 9.87142 5.30273 9.72168C6.29883 9.57194 7.27214 9.36035 8.22266 9.08691L8.06641 9.12598C8.20964 9.37337 8.3431 9.63053 8.4668 9.89746C8.5905 10.1644 8.71094 10.4346 8.82812 10.708C8.15104 10.9424 7.51302 11.2321 6.91406 11.5771C6.3151 11.9222 5.75521 12.3031 5.23438 12.7197L5.25391 12.7002L5 12.915C4.70052 13.1755 4.41406 13.4456 4.14062 13.7256C3.86719 14.0055 3.60677 14.2952 3.35938 14.5947L3.33984 14.6338ZM8.33984 16.8604C8.33984 16.8604 8.33659 16.8604 8.33008 16.8604C8.32357 16.8604 8.32031 16.8604 8.32031 16.8604C7.63021 16.8604 6.9694 16.7594 6.33789 16.5576C5.70638 16.3558 5.1237 16.0726 4.58984 15.708L4.60938 15.7275C4.81771 15.4932 5.0293 15.2686 5.24414 15.0537C5.45898 14.8389 5.67708 14.6273 5.89844 14.4189L5.91797 14.3994L6.17188 14.1846C6.65365 13.7809 7.16797 13.4229 7.71484 13.1104C8.26172 12.7979 8.83464 12.5309 9.43359 12.3096L9.51172 12.29C9.73307 12.876 9.94141 13.5075 10.1367 14.1846C10.332 14.8617 10.5013 15.5648 10.6445 16.2939L10.6836 16.4502C10.3451 16.5804 9.97721 16.6813 9.58008 16.7529C9.18294 16.8245 8.78255 16.8604 8.37891 16.8604C8.36589 16.8604 8.35612 16.8604 8.34961 16.8604C8.3431 16.8604 8.33984 16.8604 8.33984 16.8604ZM12.207 15.6299C12.0378 14.8877 11.862 14.1976 11.6797 13.5596C11.4974 12.9215 11.2956 12.3031 11.0742 11.7041L11.1328 11.8994H11.4062C11.4193 11.8994 11.429 11.8994 11.4355 11.8994C11.4421 11.8994 11.4518 11.8994 11.4648 11.8994C11.4779 11.8994 11.4876 11.8994 11.4941 11.8994C11.5007 11.8994 11.5104 11.8994 11.5234 11.8994H12.0898C12.5456 11.9124 12.9948 11.958 13.4375 12.0361C13.8802 12.1143 14.3099 12.2249 14.7266 12.3682L14.668 12.3486C14.4336 13.0257 14.1048 13.641 13.6816 14.1943C13.2585 14.7477 12.7734 15.2197 12.2266 15.6104L12.207 15.6299ZM12.0898 10.2002C11.9987 10.2002 11.9108 10.2002 11.8262 10.2002C11.7415 10.2002 11.6602 10.2002 11.582 10.2002C11.556 10.2002 11.5267 10.1969 11.4941 10.1904C11.4616 10.1839 11.4323 10.1807 11.4062 10.1807C11.3802 10.1807 11.3542 10.1839 11.3281 10.1904C11.3021 10.1969 11.276 10.2002 11.25 10.2002C11.1198 10.2132 10.9961 10.2262 10.8789 10.2393C10.7617 10.2523 10.651 10.2718 10.5469 10.2979L10.5664 10.2783H10.4883C10.3711 10.0049 10.2474 9.73145 10.1172 9.45801C9.98698 9.18457 9.85677 8.90462 9.72656 8.61816C10.5469 8.33171 11.3151 8.01921 12.0312 7.68066C12.7474 7.34212 13.4375 6.97103 14.1016 6.56738L14.0039 6.62598C14.3164 7.12077 14.5605 7.66764 14.7363 8.2666C14.9121 8.86556 15 9.49056 15 10.1416C15 10.1546 15 10.1644 15 10.1709C15 10.1774 15 10.1872 15 10.2002C15 10.2653 15 10.3337 15 10.4053C15 10.4769 15 10.5518 15 10.6299C14.5833 10.4867 14.1374 10.3792 13.6621 10.3076C13.1868 10.236 12.6953 10.2002 12.1875 10.2002C12.1745 10.2002 12.1582 10.2002 12.1387 10.2002C12.1191 10.2002 12.1029 10.2002 12.0898 10.2002Z" fill="#E94D88"/>
</g>
</svg>
