<svg width="20" height="21" viewBox="0 0 20 21" fill="none" xmlns="http://www.w3.org/2000/svg">
<g id="Nav &#226;&#134;&#146; Link">
<path id="Vector" d="M18.3398 8.28613C18.3398 8.24707 18.3431 8.20801 18.3496 8.16895C18.3561 8.12988 18.3594 8.09082 18.3594 8.05176C18.3594 7.46582 18.291 6.89941 18.1543 6.35254C18.0176 5.80566 17.8255 5.29134 17.5781 4.80957L17.5977 4.84863C17.4154 4.6403 17.2038 4.46452 16.9629 4.32129C16.722 4.17806 16.4583 4.0804 16.1719 4.02832L16.1523 4.00879C15.2669 3.93066 14.3229 3.86882 13.3203 3.82324C12.3177 3.77767 11.2956 3.75488 10.2539 3.75488C10.0586 3.75488 9.86979 3.75488 9.6875 3.75488C9.50521 3.75488 9.31641 3.75488 9.12109 3.75488H9.17969C9.01042 3.75488 8.82812 3.75488 8.63281 3.75488C8.4375 3.75488 8.24219 3.75488 8.04688 3.75488C7.03125 3.75488 6.01562 3.77767 5 3.82324C3.98438 3.86882 2.97526 3.93717 1.97266 4.02832L2.22656 4.00879C1.99219 4.04785 1.77083 4.12272 1.5625 4.2334C1.35417 4.34408 1.17188 4.47754 1.01562 4.63379C0.638021 4.97233 0.400391 5.40853 0.302734 5.94238C0.205078 6.47624 0.136719 6.99707 0.0976562 7.50488C0.0716146 7.90853 0.0488281 8.34147 0.0292969 8.80371C0.00976562 9.26595 0 9.73145 0 10.2002C0 10.6689 0.00976562 11.141 0.0292969 11.6162C0.0488281 12.0915 0.0716146 12.5635 0.0976562 13.0322V12.8955C0.110677 13.195 0.139974 13.488 0.185547 13.7744C0.23112 14.0609 0.286458 14.3408 0.351562 14.6143V14.5752C0.403646 14.7835 0.478516 14.9854 0.576172 15.1807C0.673828 15.376 0.794271 15.5518 0.9375 15.708C1.10677 15.8643 1.29557 15.9977 1.50391 16.1084C1.71224 16.2191 1.93359 16.3005 2.16797 16.3525H2.1875C2.8776 16.4437 3.61328 16.512 4.39453 16.5576C5.17578 16.6032 5.97656 16.626 6.79688 16.626C6.9401 16.626 7.08008 16.626 7.2168 16.626C7.35352 16.626 7.49349 16.626 7.63672 16.626H7.59766C8.32682 16.639 9.03646 16.6455 9.72656 16.6455C10.4167 16.6455 11.11 16.6357 11.8066 16.6162C12.5033 16.5967 13.2031 16.5674 13.9062 16.5283C14.6094 16.4893 15.3385 16.4437 16.0938 16.3916C16.3411 16.3525 16.5723 16.2744 16.7871 16.1572C17.002 16.04 17.194 15.9033 17.3633 15.7471C17.4805 15.6299 17.5814 15.5029 17.666 15.3662C17.7507 15.2295 17.819 15.083 17.8711 14.9268V14.9072C18.0143 14.5036 18.125 14.0706 18.2031 13.6084C18.2812 13.1462 18.3203 12.6676 18.3203 12.1729C18.3203 12.1598 18.3203 12.1436 18.3203 12.124C18.3203 12.1045 18.3203 12.0882 18.3203 12.0752C18.3333 11.8408 18.3398 11.2126 18.3398 10.1904C18.3398 9.16829 18.3398 8.53353 18.3398 8.28613ZM7.30469 12.583V7.40723L12.2266 10.0049C11.5365 10.3955 10.7585 10.8057 9.89258 11.2354C9.02669 11.665 8.16406 12.1143 7.30469 12.583Z" fill="#C8312B"/>
</g>
</svg>
