<svg width="19" height="19" viewBox="0 0 19 19" fill="none" xmlns="http://www.w3.org/2000/svg">
<g id="Icon" clip-path="url(#clip0_1_143)">
<path id="Vector" d="M9.36725 8.98871C9.34381 8.94183 9.31744 8.89789 9.28815 8.85687C9.25885 8.81586 9.23248 8.77777 9.20905 8.74261L5.44733 4.9809C5.37701 4.9223 5.29791 4.8725 5.21002 4.83148C5.12213 4.79047 5.02545 4.76996 4.91998 4.76996C4.70905 4.76996 4.53033 4.8432 4.38385 4.98969C4.23737 5.13617 4.16412 5.31488 4.16412 5.52582C4.16412 5.63129 4.18463 5.72797 4.22565 5.81586C4.26666 5.90375 4.32233 5.98285 4.39264 6.05316L6.87115 8.5141H1.17584C0.964905 8.5141 0.786194 8.58734 0.639709 8.73383C0.493225 8.88031 0.419983 9.05902 0.419983 9.26996C0.419983 9.4809 0.493225 9.65961 0.639709 9.80609C0.786194 9.95258 0.964905 10.0258 1.17584 10.0258H6.87115L4.39264 12.4868C4.32233 12.5571 4.26666 12.6362 4.22565 12.7241C4.18463 12.812 4.16412 12.9086 4.16412 13.0141C4.16412 13.1196 4.18463 13.2192 4.22565 13.3129C4.26666 13.4067 4.32233 13.4887 4.39264 13.559C4.46295 13.6176 4.54205 13.6674 4.62994 13.7084C4.71783 13.7495 4.81451 13.77 4.91998 13.77C5.02545 13.77 5.12213 13.7495 5.21002 13.7084C5.29791 13.6674 5.37701 13.6176 5.44733 13.559L9.20905 9.7973C9.23248 9.76215 9.25885 9.72406 9.28815 9.68304C9.31744 9.64203 9.33795 9.60394 9.34967 9.56879L9.36725 9.55121C9.37897 9.51605 9.39069 9.47211 9.4024 9.41937C9.41412 9.36664 9.41998 9.31683 9.41998 9.26996C9.41998 9.22308 9.41412 9.17328 9.4024 9.12054C9.39069 9.06781 9.37311 9.02386 9.34967 8.98871H9.36725Z" fill="#E668B3"/>
</g>
<defs>
<clipPath id="clip0_1_143">
<rect width="18" height="18" fill="white" transform="matrix(1 0 0 -1 0.419983 18.27)"/>
</clipPath>
</defs>
</svg>
