<svg width="44" height="45" viewBox="0 0 44 45" fill="none" xmlns="http://www.w3.org/2000/svg">
<g id="SVG" clip-path="url(#clip0_1_94)">
<path id="Vector" d="M10.0839 31.6943C13.1215 31.6943 15.5839 29.2319 15.5839 26.1943C15.5839 23.1568 13.1215 20.6943 10.0839 20.6943C7.04636 20.6943 4.58392 23.1568 4.58392 26.1943C4.58392 29.2319 7.04636 31.6943 10.0839 31.6943Z" fill="#E668B3"/>
<path id="Vector_2" d="M15.125 35.3622H5.04109C3.70394 35.3635 2.42199 35.8956 1.4768 36.8414C0.531605 37.7872 0.000454737 39.0696 0 40.4067L0 43.1567C0 43.5214 0.144866 43.8711 0.402728 44.129C0.660591 44.3869 1.01033 44.5317 1.375 44.5317H18.7911C19.1558 44.5317 19.5055 44.3869 19.7634 44.129C20.0212 43.8711 20.1661 43.5214 20.1661 43.1567V40.4067C20.1656 39.0696 19.6345 37.7872 18.6893 36.8414C17.7441 35.8956 16.4622 35.3635 15.125 35.3622Z" fill="#E668B3"/>
<path id="Vector_3" d="M33.9161 31.6943C36.9536 31.6943 39.4161 29.2319 39.4161 26.1943C39.4161 23.1568 36.9536 20.6943 33.9161 20.6943C30.8785 20.6943 28.4161 23.1568 28.4161 26.1943C28.4161 29.2319 30.8785 31.6943 33.9161 31.6943Z" fill="#E668B3"/>
<path id="Vector_4" d="M38.9589 35.3622H28.875C27.5379 35.3635 26.2559 35.8956 25.3107 36.8414C24.3655 37.7872 23.8344 39.0696 23.8339 40.4067V43.1567C23.8339 43.5214 23.9788 43.8711 24.2367 44.129C24.4945 44.3869 24.8443 44.5317 25.2089 44.5317H42.625C42.9897 44.5317 43.3394 44.3869 43.5973 44.129C43.8552 43.8711 44 43.5214 44 43.1567V40.4067C43.9996 39.0696 43.4684 37.7872 42.5232 36.8414C41.578 35.8956 40.2961 35.3635 38.9589 35.3622Z" fill="#E668B3"/>
<path id="Vector_5" d="M25.74 19.1767V20.4967C25.7373 21.0389 25.5194 21.5577 25.1343 21.9393C24.7491 22.3209 24.2283 22.534 23.6861 22.5317H20.3122C19.3222 22.5317 18.2497 21.7978 18.2497 20.1667V19.1767H25.74ZM30.25 8.7267C30.253 9.94315 29.9827 11.1447 29.4592 12.2428C28.9356 13.3408 28.1721 14.3072 27.225 15.0706C26.4963 15.6373 25.9901 16.4423 25.795 17.3445H18.2188C18.0698 16.4722 17.5903 15.691 16.8799 15.1634C15.8777 14.3853 15.0724 13.3826 14.5288 12.2362C13.9851 11.0898 13.7184 9.83178 13.75 8.56342C13.8411 4.19951 17.49 0.588419 21.8711 0.5317C22.9711 0.507081 24.0646 0.705801 25.0856 1.11584C26.1065 1.52589 27.0337 2.13873 27.8111 2.91733C28.5875 3.67181 29.2037 4.57519 29.6228 5.5734C30.0418 6.5716 30.2552 7.64411 30.25 8.7267Z" fill="#F5C3E1"/>
</g>
<defs>
<clipPath id="clip0_1_94">
<rect width="44" height="44" fill="white" transform="translate(0 0.529968)"/>
</clipPath>
</defs>
</svg>
