<svg width="44" height="45" viewBox="0 0 44 45" fill="none" xmlns="http://www.w3.org/2000/svg">
<g id="Tablist &#226;&#134;&#146; Tab &#226;&#134;&#146; SVG" clip-path="url(#clip0_1_109)">
<path id="Vector" d="M29.5625 4.06543L9.5889 14.28L1.64999 10.3818L21.2626 0.701835C21.4845 0.593291 21.7281 0.536865 21.9751 0.536865C22.222 0.536865 22.4657 0.593291 22.6875 0.701835L29.5625 4.06543ZM42.3276 10.3818L22.0103 20.4468L14.4014 16.7L13.3048 16.1414L33.2922 5.91996L34.3922 6.47683L42.3276 10.3818Z" fill="#B5E7D9"/>
<path id="Vector_2" d="M20.3827 23.3481L20.3603 44.53L0.898906 34.3739C0.628191 34.2292 0.40168 34.014 0.243414 33.7511C0.0851493 33.4881 0.0010353 33.1872 0 32.8803L0 13.2831L8.25 17.3462V24.4876C8.25 24.9252 8.42384 25.3449 8.73327 25.6543C9.04271 25.9638 9.46239 26.1376 9.9 26.1376C10.3376 26.1376 10.7573 25.9638 11.0667 25.6543C11.3762 25.3449 11.55 24.9252 11.55 24.4876V18.9979L12.65 19.5342L20.3827 23.3481ZM43.9777 13.3054L23.6827 23.3275L23.6603 44.5076L44 33.8875L43.9777 13.3054Z" fill="#45C4A0"/>
</g>
<defs>
<clipPath id="clip0_1_109">
<rect width="44" height="44" fill="white" transform="translate(0 0.529968)"/>
</clipPath>
</defs>
</svg>
