<svg width="44" height="45" viewBox="0 0 44 45" fill="none" xmlns="http://www.w3.org/2000/svg">
<g id="Tablist &#226;&#134;&#146; Tab &#226;&#134;&#146; SVG" clip-path="url(#clip0_1_103)">
<path id="Vector" d="M21.1784 26.0534C21.0653 25.8208 20.8888 25.6249 20.6693 25.4881C20.4498 25.3513 20.1961 25.2791 19.9375 25.28H3.3275C2.96283 25.28 2.61309 25.4248 2.35523 25.6827C2.09737 25.9406 1.9525 26.2903 1.9525 26.655C1.9525 36.5103 10.0203 44.53 19.9409 44.53C22.6447 44.5349 25.3147 43.9304 27.7527 42.7614C27.9164 42.6834 28.063 42.5738 28.1842 42.4389C28.3054 42.3041 28.3987 42.1465 28.4588 41.9755C28.5189 41.8044 28.5445 41.6231 28.5342 41.442C28.5239 41.261 28.4779 41.0838 28.3989 40.9206L21.1784 26.0534Z" fill="#A07CC5"/>
<path id="Vector_2" d="M26.125 3.79559C25.7603 3.79559 25.4106 3.94046 25.1527 4.19832C24.8949 4.45618 24.75 4.80592 24.75 5.17059V21.5658C24.7495 21.7736 24.7965 21.9787 24.8875 22.1656L32.0598 36.9383C32.2183 37.2653 32.4998 37.5164 32.8428 37.6365C33.1858 37.7566 33.5624 37.7361 33.8903 37.5793C40.1277 34.575 44 28.4373 44 21.5623C44 11.7637 35.9803 3.79559 26.125 3.79559Z" fill="#D9CBE8"/>
<path id="Vector_3" d="M19.25 18.405V1.90497C19.25 1.5403 19.1051 1.19056 18.8473 0.932696C18.5894 0.674834 18.2397 0.529968 17.875 0.529968C13.1361 0.535881 8.59293 2.42103 5.242 5.77197C1.89106 9.1229 0.00591258 13.666 0 18.405C0 18.7696 0.144866 19.1194 0.402728 19.3772C0.660591 19.6351 1.01033 19.78 1.375 19.78H17.875C18.2397 19.78 18.5894 19.6351 18.8473 19.3772C19.1051 19.1194 19.25 18.7696 19.25 18.405Z" fill="#A07CC5"/>
</g>
<defs>
<clipPath id="clip0_1_103">
<rect width="44" height="44" fill="white" transform="translate(0 0.529968)"/>
</clipPath>
</defs>
</svg>
