<svg width="20" height="21" viewBox="0 0 20 21" fill="none" xmlns="http://www.w3.org/2000/svg">
<g id="Icon">
<path id="Vector" d="M11.4453 6.26562C11.3672 6.1875 11.2793 6.12565 11.1816 6.08008C11.084 6.0345 10.9766 6.01172 10.8594 6.01172C10.7422 6.01172 10.6348 6.0345 10.5371 6.08008C10.4395 6.12565 10.3516 6.1875 10.2734 6.26562L4.0625 12.4766L1.44531 9.85938C1.36719 9.78125 1.2793 9.72266 1.18164 9.68359C1.08398 9.64453 0.976562 9.625 0.859375 9.625C0.625 9.625 0.423177 9.70638 0.253906 9.86914C0.0846354 10.0319 0 10.2305 0 10.4648C0 10.5951 0.0260417 10.7122 0.078125 10.8164C0.130208 10.9206 0.195312 11.0117 0.273438 11.0898L3.47656 14.293C3.54167 14.3581 3.6263 14.4134 3.73047 14.459C3.83464 14.5046 3.94531 14.5273 4.0625 14.5273C4.17969 14.5273 4.28711 14.5046 4.38477 14.459C4.48242 14.4134 4.57031 14.3581 4.64844 14.293L11.4453 7.47656C11.5365 7.39844 11.6048 7.30729 11.6504 7.20312C11.696 7.09896 11.7188 6.98828 11.7188 6.87109C11.7188 6.75391 11.696 6.63997 11.6504 6.5293C11.6048 6.41862 11.5365 6.33073 11.4453 6.26562Z" fill="#E668B3"/>
</g>
</svg>
